<svg xmlns="http://www.w3.org/2000/svg" viewBox="0 0 100 100" fill="none">
  <rect width="100" height="100" rx="20" fill="#0ea5e9"/>
  <path d="M30 25h40c4 0 7 3 7 7v36c0 4-3 7-7 7h-4l4 8h-6l-5-8H41l-5 8h-6l4-8h-4c-4 0-7-3-7-7V32c0-4 3-7 7-7z" fill="#fff"/>
  <rect x="35" y="35" width="12" height="16" rx="2" fill="#0ea5e9"/>
  <rect x="53" y="35" width="12" height="16" rx="2" fill="#0ea5e9"/>
  <circle cx="38" cy="68" r="4" fill="#0ea5e9"/>
  <circle cx="62" cy="68" r="4" fill="#0ea5e9"/>
  <line x1="30" y1="58" x2="70" y2="58" stroke="#0ea5e9" stroke-width="2"/>
</svg>
